<mxfile host="app.diagrams.net" modified="2023-11-24T09:05:59.268Z" agent="Mozilla/5.0 (Windows NT 10.0; Win64; x64) AppleWebKit/537.36 (KHTML, like Gecko) Chrome/119.0.0.0 Safari/537.36" etag="GchFpSHEFJOmz827wpMq" version="22.1.3" type="github">
  <diagram name="第 1 页" id="-PQ7a87coccsCbGEvKLt">
    <mxGraphModel dx="933" dy="478" grid="1" gridSize="10" guides="1" tooltips="1" connect="1" arrows="1" fold="1" page="1" pageScale="1" pageWidth="827" pageHeight="1169" math="0" shadow="0">
      <root>
        <mxCell id="0" />
        <mxCell id="1" parent="0" />
        <mxCell id="opbxaaCzsm2ePwEEzuPa-1" value="" style="edgeStyle=orthogonalEdgeStyle;rounded=0;orthogonalLoop=1;jettySize=auto;html=1;labelBackgroundColor=#F1FAEE;strokeColor=#457B9D;fontColor=#1D3557;" edge="1" parent="1" source="opbxaaCzsm2ePwEEzuPa-2" target="opbxaaCzsm2ePwEEzuPa-3">
          <mxGeometry relative="1" as="geometry" />
        </mxCell>
        <mxCell id="opbxaaCzsm2ePwEEzuPa-2" value="U-Boot&lt;br&gt;(Booting from eMMC/Nor Flash/NVMe/UFS)" style="whiteSpace=wrap;html=1;rounded=1;fillColor=#A8DADC;strokeColor=#457B9D;fontColor=#1D3557;" vertex="1" parent="1">
          <mxGeometry x="120" y="160" width="240" height="60" as="geometry" />
        </mxCell>
        <mxCell id="opbxaaCzsm2ePwEEzuPa-3" value="Kernel" style="whiteSpace=wrap;html=1;rounded=1;fillColor=#A8DADC;strokeColor=#457B9D;fontColor=#1D3557;" vertex="1" parent="1">
          <mxGeometry x="440" y="160" width="120" height="60" as="geometry" />
        </mxCell>
      </root>
    </mxGraphModel>
  </diagram>
</mxfile>
